<svg width="100" height="100" viewBox="0 0 100 100" fill="none" xmlns="http://www.w3.org/2000/svg">
<rect opacity="0.1" width="100" height="100" rx="50" fill="#7D68FF"/>
<g clip-path="url(#clip0_17_2)">
<mask id="mask0_17_2" style="mask-type:luminance" maskUnits="userSpaceOnUse" x="16" y="16" width="68" height="68">
<path d="M83.3333 16.6668H16.6667V83.3335H83.3333V16.6668Z" fill="white"/>
</mask>
<g mask="url(#mask0_17_2)">
<mask id="mask1_17_2" style="mask-type:luminance" maskUnits="userSpaceOnUse" x="16" y="16" width="68" height="68">
<path d="M83.3333 16.6668H16.6667V83.3335H83.3333V16.6668Z" fill="white"/>
</mask>
<g mask="url(#mask1_17_2)">
<path d="M21.1152 40.2161V56.8973C21.1152 59.2096 21.4827 61.164 22.2584 62.8432C22.9934 64.4947 24.0958 65.7885 25.5248 66.752C26.2188 67.2199 26.9538 67.4401 27.6888 67.3851C28.4237 67.33 29.0769 66.9997 29.5668 66.3391C30.0568 65.6233 30.3018 64.5223 30.3018 63.0909V46.4096L34.8747 49.4926L34.9563 66.2289C34.9563 67.7705 34.7522 69.1743 34.3848 70.358C35.2421 72.3674 36.2628 73.7162 37.4878 74.5421C38.4677 75.2027 39.4068 75.4505 40.2641 75.2027C41.1215 74.955 41.5707 74.2668 41.5707 73.0557V54.0621L46.9193 57.6681V76.8818C46.9193 78.9188 46.511 80.4603 45.7353 81.5339C44.9187 82.5799 43.8571 83.1305 42.5506 83.1305C41.2032 83.1029 39.7742 82.5799 38.2635 81.5614C37.0386 80.7356 35.8954 79.6896 34.8338 78.3132C33.7723 76.9369 32.8332 75.4229 32.0574 73.6887C31.1184 74.2668 30.0977 74.4595 28.9544 74.3494C27.8113 74.2392 26.668 73.7438 25.5248 72.9731C23.7691 71.7894 22.2176 70.2479 20.8703 68.2384C19.4821 66.2565 18.4205 63.9992 17.6856 61.5218C16.9098 59.127 16.5424 56.567 16.5424 53.8143V37.133L21.1152 40.2161Z" fill="#7D68FF"/>
<path opacity="0.2" d="M57.5794 20.001V36.6823C57.5794 38.9946 57.947 40.949 58.7228 42.6281C59.4575 44.2797 60.5599 45.5735 61.989 46.5369C62.6833 47.0049 63.4181 47.2251 64.1529 47.17C64.8878 47.115 65.5412 46.7847 66.031 46.124C66.5213 45.4083 66.7662 44.3072 66.7662 42.8758V26.1946L71.3389 29.2776L71.4207 46.0139C71.4207 47.5554 71.2163 48.9592 70.8491 50.1429C71.7065 52.1524 72.7272 53.5012 73.9518 54.327C74.9319 54.9877 75.8708 55.2354 76.7283 54.9877C77.5857 54.7399 78.0351 54.0517 78.0351 52.8406V33.847L83.3835 37.4531V56.6668C83.3835 58.7038 82.9754 60.2453 82.1993 61.3188C81.3828 62.3649 80.3213 62.9154 79.0148 62.9154C77.6675 62.8879 76.2383 62.3649 74.7278 61.3464C73.5028 60.5206 72.3596 59.4746 71.298 58.0982C70.2365 56.7218 69.2973 55.2079 68.5216 53.4737C67.5828 54.0517 66.5618 54.2444 65.4188 54.1343C64.2756 54.0242 63.1323 53.5287 61.989 52.758C60.2333 51.5743 58.6818 50.0328 57.3345 48.0234C55.9463 46.0414 54.8848 43.7842 54.15 41.3068C53.3739 38.912 53.0067 36.352 53.0067 33.5992V16.918L57.5794 20.001Z" fill="#7D68FF"/>
<path d="M57.5794 54.7297V71.4109C57.5794 73.7232 57.947 75.1821 58.7228 75.8152C59.4575 76.4759 60.5599 76.2832 61.989 75.3197C62.6833 74.8518 63.4181 74.0811 64.1529 73.035C64.8878 71.989 65.5412 70.7778 66.031 69.4565C66.5213 68.0802 66.7662 66.6487 66.7662 65.2174V48.5361L71.3389 45.4531L71.4207 62.0793C71.4207 63.6208 71.2163 65.3 70.8491 66.9791C71.7065 67.8324 72.7272 67.8049 73.9518 66.9791C74.9319 66.3185 75.8708 65.3 76.7283 63.8961C77.5857 62.4922 78.0351 61.1985 78.0351 59.9872V40.9937L83.3835 37.3877V56.6015C83.3835 58.6385 82.9754 60.7305 82.1993 62.8501C81.3828 64.9972 80.3213 66.9791 79.0148 68.7408C77.6675 70.5301 76.2383 71.9339 74.7278 72.9524C73.5028 73.7782 72.3596 74.2737 71.298 74.3287C70.2365 74.3838 69.2973 74.1361 68.5216 73.4479C67.5828 75.2922 66.5618 76.8612 65.4188 78.2927C64.2756 79.7241 63.1323 80.7701 61.989 81.5408C60.2333 82.7245 58.6818 83.275 57.3345 83.0823C55.9463 82.9722 54.8848 82.1464 54.15 80.66C53.3739 79.3112 53.0067 77.2467 53.0067 74.4939V57.8127L57.5794 54.7297Z" fill="#7D68FF"/>
<path opacity="0.2" d="M21.1155 34.0844V50.7657C21.1155 53.078 21.483 54.5369 22.2587 55.1701C22.9936 55.8307 24.096 55.638 25.5251 54.6746C26.2191 54.2066 26.9541 53.4358 27.689 52.3898C28.4239 51.3438 29.0771 50.1327 29.5671 48.8113C30.0571 47.435 30.3021 46.0036 30.3021 44.5722V27.8909L34.8749 24.8079L34.9566 41.4342C34.9566 42.9757 34.7524 44.6547 34.385 46.3339C35.2424 47.1872 36.2631 47.1597 37.488 46.3339C38.4679 45.6732 39.407 44.6547 40.2644 43.2509C41.1218 41.847 41.5709 40.5532 41.5709 39.3421V20.3485L46.9196 16.7425V35.9562C46.9196 37.9932 46.5112 40.0853 45.7355 42.2049C44.9189 44.352 43.8574 46.3339 42.5508 48.0957C41.2035 49.8849 39.7744 51.2887 38.2638 52.3072C37.0389 53.1331 35.8956 53.6286 34.8341 53.6836C33.7726 53.7387 32.8335 53.4909 32.0577 52.8027C31.1186 54.647 30.0979 56.2161 28.9547 57.6475C27.8115 59.0788 26.6682 60.1249 25.5251 60.8957C23.7694 62.0793 22.2179 62.6298 20.8705 62.4372C19.4823 62.327 18.4208 61.5012 17.6858 60.0147C16.9101 58.666 16.5426 56.6014 16.5426 53.8487L16.5426 37.1675L21.1155 34.0844Z" fill="#7D68FF"/>
</g>
</g>
</g>
<defs>
<clipPath id="clip0_17_2">
<rect width="66.6667" height="66.6667" fill="white" transform="translate(16.6667 16.6668)"/>
</clipPath>
</defs>
</svg>
